<?xml version="1.0" encoding="UTF-8"?>
<svg xmlns="http://www.w3.org/2000/svg" viewBox="0 0 52 52" role="img">
  <defs>
    <linearGradient id="siggraph-red-1" x1="25.83" y1="-220.59" x2="69.35" y2="-254.51" gradientTransform="translate(-14.1 274.1)" gradientUnits="userSpaceOnUse">
      <stop offset="0.01" stop-color="#c96d6c"/>
      <stop offset="0.12" stop-color="#ce7977"/>
      <stop offset="0.24" stop-color="#d1817e"/>
      <stop offset="0.28" stop-color="#cc7175"/>
      <stop offset="0.36" stop-color="#c15060"/>
      <stop offset="0.46" stop-color="#b83550"/>
      <stop offset="0.56" stop-color="#b22043"/>
      <stop offset="0.67" stop-color="#ad113a"/>
      <stop offset="0.8" stop-color="#aa0835"/>
      <stop offset="1" stop-color="#a90533"/>
    </linearGradient>
    <linearGradient id="siggraph-red-2" x1="121.71" y1="6.21" x2="143.89" y2="-71.42" gradientTransform="translate(-40.21 35.65) scale(0.54)" gradientUnits="userSpaceOnUse">
      <stop offset="0.01" stop-color="#c56363"/>
      <stop offset="0.26" stop-color="#d1807d"/>
      <stop offset="0.27" stop-color="#d1817e"/>
      <stop offset="1" stop-color="#a90533"/>
    </linearGradient>
    <linearGradient id="siggraph-blue-1" x1="74.96" y1="-18.68" x2="143.97" y2="-66.68" gradientTransform="translate(-39.62 36.82) scale(0.54)" gradientUnits="userSpaceOnUse">
      <stop offset="0" stop-color="#89a9d1"/>
      <stop offset="0.02" stop-color="#8cabd2"/>
      <stop offset="0.12" stop-color="#97b2d7"/>
      <stop offset="0.24" stop-color="#9ab4d8"/>
      <stop offset="0.32" stop-color="#8aabd2"/>
      <stop offset="0.49" stop-color="#6d99c8"/>
      <stop offset="0.67" stop-color="#578dc0"/>
      <stop offset="0.84" stop-color="#4a86bc"/>
      <stop offset="1" stop-color="#4683ba"/>
    </linearGradient>
    <linearGradient id="siggraph-blue-2" x1="213.44" y1="-174.81" x2="165.22" y2="-174.81" gradientTransform="translate(-166.45 198.81)" gradientUnits="userSpaceOnUse">
      <stop offset="0.01" stop-color="#89a9d1"/>
      <stop offset="0.18" stop-color="#7fa3cd"/>
      <stop offset="0.48" stop-color="#6394c4"/>
      <stop offset="0.74" stop-color="#4683ba"/>
      <stop offset="1" stop-color="#4683ba"/>
    </linearGradient>
  </defs>
  <path fill="url(#siggraph-red-1)" d="M47.76,13.24h0c2.58,4.07-4.49,13.6-15.9,21.39S9,45.54,6.15,41.65h0C13.6,52.59,29,55.09,40.47,47.24S55.23,24.18,47.76,13.24Z"/>
  <path fill="url(#siggraph-red-2)" d="M47.94,13.68C45.41,10,35.34,12.36,24.75,19c7.41-3.79,13.89-4.78,15.77-2C42.91,20.48,37,28.77,27.24,35.46c-8.31,5.72-16.69,8.42-20.45,6.88,3.21,3.39,14.31.26,25.37-7.28C43.61,27.25,50.68,17.68,47.94,13.68Z"/>
  <path fill="url(#siggraph-blue-1)" d="M4,38.58H4C1.42,34.5,8.49,25,19.91,17.18s22.87-10.91,25.71-7h0C38.17-.77,22.8-3.27,11.3,4.57S-3.46,27.64,4,38.58Z"/>
  <path fill="url(#siggraph-blue-2)" d="M3.82,38.14c2.54,3.7,12.61,1.31,23.2-5.28-7.41,3.8-13.89,4.79-15.77,2C8.86,31.34,14.8,23.05,24.53,16.35,32.84,10.64,41.22,7.94,45,9.48c-3.21-3.4-14.31-.26-25.37,7.28C8.16,24.57,1.09,34.14,3.82,38.14Z"/>
</svg>
